<?xml version="1.0" standalone="no"?>
<!DOCTYPE svg PUBLIC "-//W3C//DTD SVG 20010904//EN"
 "http://www.w3.org/TR/2001/REC-SVG-20010904/DTD/svg10.dtd">
<svg version="1.0" xmlns="http://www.w3.org/2000/svg"
 width="310.000000pt" height="292.000000pt" viewBox="0 0 310.000000 292.000000"
 preserveAspectRatio="xMidYMid meet">

<g transform="translate(0.000000,292.000000) scale(0.100000,-0.100000)"
fill="#000000" stroke="none">
<path d="M1390 2488 c-270 -63 -558 -135 -718 -180 l-184 -51 5 -366 c4 -320
7 -377 25 -456 74 -331 234 -576 512 -782 154 -114 430 -263 489 -263 32 0
213 83 315 144 342 204 560 460 655 770 43 139 50 228 51 605 l1 355 -128 38
c-315 93 -817 209 -896 207 -23 -1 -80 -10 -127 -21z m144 -85 c-14 -3 -24
-14 -28 -33 -4 -22 -10 -28 -22 -23 -9 3 -20 0 -24 -7 -6 -10 -46 -14 -152
-16 -130 -2 -160 -7 -328 -47 -231 -56 -252 -61 -224 -48 16 7 492 127 689
174 11 3 40 5 65 4 25 0 35 -2 24 -4z m-84 -103 c-8 -5 -28 -9 -45 -9 -30 2
-30 2 5 9 51 11 57 11 40 0z m-102 -17 c-10 -2 -26 -2 -35 0 -10 3 -2 5 17 5
19 0 27 -2 18 -5z m-75 -10 c-7 -2 -21 -2 -30 0 -10 3 -4 5 12 5 17 0 24 -2
18 -5z m-76 -9 c-3 -3 -12 -4 -19 -1 -8 3 -5 6 6 6 11 1 17 -2 13 -5z m-280
-40 c-3 -3 -12 -4 -19 -1 -8 3 -5 6 6 6 11 1 17 -2 13 -5z m1137 -96 c-17 -18
-82 -89 -144 -158 -62 -69 -245 -268 -407 -442 -161 -174 -293 -319 -293 -321
0 -3 17 -1 38 4 62 14 313 37 527 48 110 6 231 13 269 16 37 2 67 2 64 0 -2
-2 -73 -24 -158 -49 -265 -77 -609 -205 -771 -286 -32 -17 -66 -30 -74 -30
-20 0 -161 140 -203 202 -62 90 -85 56 307 455 l350 358 -339 3 -338 2 -4 68
c-2 37 -2 88 0 115 l3 47 602 0 601 0 -30 -32z m256 -153 l0 -185 -210 0
c-115 0 -210 3 -210 6 0 3 44 54 98 112 54 59 126 140 161 180 62 71 64 72
112 72 l49 0 0 -185z m-20 -292 c-1 -104 -52 -395 -67 -380 -2 3 0 22 6 43 14
57 23 156 11 124 -8 -19 -9 -13 -4 25 2 28 7 94 11 148 5 85 8 97 25 97 15 0
18 -8 18 -57z m-63 -275 c-3 -7 -5 -2 -5 12 0 14 2 19 5 13 2 -7 2 -19 0 -25z"/>
<path d="M1288 2343 c7 -3 16 -2 19 1 4 3 -2 6 -13 5 -11 0 -14 -3 -6 -6z"/>
<path d="M1238 2333 c7 -3 16 -2 19 1 4 3 -2 6 -13 5 -11 0 -14 -3 -6 -6z"/>
<path d="M2252 1525 c0 -16 2 -22 5 -12 2 9 2 23 0 30 -3 6 -5 -1 -5 -18z"/>
<path d="M2654 2015 c0 -159 2 -223 3 -142 2 82 2 212 0 290 -1 78 -3 12 -3
-148z"/>
<path d="M385 1880 c3 -341 9 -413 50 -570 39 -151 106 -303 186 -422 49 -73
209 -241 289 -303 102 -78 207 -144 327 -204 135 -68 264 -121 294 -121 32 0
222 83 327 142 300 171 526 397 656 656 79 156 138 405 134 560 l-2 77 -3 -70
c-11 -242 -87 -479 -218 -682 -71 -109 -262 -302 -394 -396 -85 -61 -381 -217
-441 -232 -14 -4 52 32 145 78 173 87 228 121 233 146 3 12 1 12 -14 0 -10 -8
-15 -9 -11 -2 4 7 0 13 -10 15 -12 2 -5 11 25 31 43 28 62 34 62 18 0 -20 30
-19 41 0 12 24 2 41 -11 19 -8 -13 -11 -13 -22 -1 -10 11 -10 12 0 7 7 -4 11
-4 10 1 -2 4 17 27 42 51 43 42 42 41 -20 -8 -133 -105 -296 -200 -452 -264
-82 -34 -88 -35 -125 -22 -108 40 -326 157 -421 228 -46 34 -55 38 -70 26 -15
-11 -15 -11 -5 3 10 12 10 18 1 27 -19 19 -32 14 -17 -5 11 -16 11 -16 -1 -5
-8 7 -15 16 -15 20 0 4 -54 61 -120 127 -66 66 -99 95 -73 64 26 -31 44 -60
40 -64 -4 -5 -2 -5 5 -1 8 4 11 -1 10 -13 -1 -15 -4 -17 -14 -9 -17 14 -17 -5
-1 -35 11 -21 11 -21 20 -2 8 18 8 18 4 -3 -3 -17 8 -34 54 -73 136 -121 371
-264 515 -314 28 -10 66 -24 85 -33 19 -8 40 -15 47 -15 7 0 10 -4 7 -9 -3 -4
-22 -1 -42 8 -20 9 -72 29 -114 45 -210 78 -419 216 -614 406 -173 168 -278
378 -340 680 -24 116 -27 157 -34 453 l-8 325 3 -335z"/>
<path d="M2190 785 c-24 -25 -42 -45 -39 -45 3 0 25 20 49 45 24 25 42 45 39
45 -3 0 -25 -20 -49 -45z"/>
<path d="M775 810 c-3 -5 -1 -10 4 -10 6 0 11 5 11 10 0 6 -2 10 -4 10 -3 0
-8 -4 -11 -10z"/>
</g>
</svg>
